<svg width="50" height="50" viewBox="0 0 50 50" fill="none" xmlns="http://www.w3.org/2000/svg">
<path d="M48.5779 42.3875C48.5779 46.5918 45.1697 50 40.9654 50C36.7612 50 33.353 46.5918 33.353 42.3875C33.353 38.1833 36.7612 34.7751 40.9654 34.7751C45.1697 34.7751 48.5779 38.1833 48.5779 42.3875Z" fill="#0DF261"/>
<path d="M3.85467 0C2.27808 0 1 1.27808 1 2.85468V41.436C1 43.0126 2.27808 44.2907 3.85468 44.2907H10.1696C11.7462 44.2907 13.0242 43.0126 13.0242 41.436V29.8443C13.0242 28.2677 14.3023 26.9896 15.8789 26.9896H26.0865C27.6631 26.9896 28.9412 28.2677 28.9412 29.8443V43.5046C28.9412 43.9388 29.2931 44.2907 29.7273 44.2907C30.2183 44.2907 30.5874 43.8451 30.5425 43.3562C30.5133 43.0372 30.4983 42.7141 30.4983 42.3875C30.4983 37.5839 33.7341 33.5361 38.145 32.3048C39.6635 31.8809 40.9654 30.6423 40.9654 29.0657V2.85467C40.9654 1.27808 39.6873 0 38.1108 0H31.7959C30.2193 0 28.9412 1.27808 28.9412 2.85467V14.4464C28.9412 16.023 27.6631 17.3011 26.0865 17.3011H15.8789C14.3023 17.3011 13.0242 16.023 13.0242 14.4464V2.85467C13.0242 1.27808 11.7461 0 10.1696 0H3.85467Z" fill="#18181B"/>
</svg>
